<?xml version="1.0" encoding="utf-8"?>
<!-- Svg Vector Icons : http://www.onlinewebfonts.com/icon -->
<!DOCTYPE svg PUBLIC "-//W3C//DTD SVG 1.1//EN" "http://www.w3.org/Graphics/SVG/1.1/DTD/svg11.dtd">
<svg version="1.1" xmlns="http://www.w3.org/2000/svg" xmlns:xlink="http://www.w3.org/1999/xlink" x="0px" y="0px" viewBox="0 0 256 256" enable-background="new 0 0 256 256" xml:space="preserve">
<metadata> Svg Vector Icons : http://www.onlinewebfonts.com/icon </metadata>
<g><g><path fill="#000000" d="M36.1,237.8c5.2,0,11.1-5.3,12.9-7.3l24.8-30.7c9.2-11.3,16.2-14.1,19.5-14.7l1.1-0.2h1.1h65.1c11,0,19.8,10.9,24.2,17.8l23,28.7c3.9,4,7.9,6,11.8,6c2.6,0,4.5-0.9,5-1.1c13-10.7,10.1-54.3,4.1-80.5c-13.8-52.5-39-58.3-40.1-58.5c-2.4-0.4-4.8-0.6-7.2-0.6c-13.7,0-23.5,6.8-25,7.9c-7.4,6.9-16.7,7.9-21.7,7.9c-1,0-1.8,0-2.4-0.1h-9.2h-0.3l-0.3,0c-12.8-0.6-20.3-5.8-22.4-7.5c-10.5-7.9-19.8-8.8-23.3-8.8c-0.5,0-0.9,0-1,0h0l-0.2,0l-0.2,0c-35.2,3.5-48,60.7-48.1,61.2c-12.1,59.6,1.1,75.9,2.9,77.7l0.7,0.5C33.2,237.6,35,237.8,36.1,237.8 M36.1,250.1c-4.1,0-8.5-1.3-12.9-4.8c0,0-23.4-14.2-7.9-90.3c0,0,14.2-66.5,58.9-70.8c0,0,1-0.1,2.7-0.1c5.3,0,17.5,1.3,30.8,11.4c0,0,5.1,4.4,15.4,4.9h9.7c0,0,0.7,0.1,1.8,0.1c3.1,0,9.3-0.6,13.7-5c0,0,13.2-10.9,33-10.9c3,0,6.1,0.2,9.3,0.8c0,0,33.5,5,49.8,67.4c0,0,17.1,74.2-9.1,93.7c0,0-4.8,3.2-11.9,3.2c-5.9,0-13.3-2.2-20.9-10l-23.8-29.7c0,0-7.9-12.7-14.3-12.7H95.5c0,0-4.5,0.8-12.3,10.4l-24.9,30.9C58.3,238.4,48.4,250.1,36.1,250.1L36.1,250.1L36.1,250.1z"/><path fill="#000000" d="M119.6,17.2l4.6-11.3c0.7,0.3,43.2,17.9,44.7,37.1c0.5,5.9-2.8,11.8-12.1,17.6l-6.4-10.4c4.8-2.9,6.4-5.3,6.3-6.2C156.3,38,138.2,24.9,119.6,17.2L119.6,17.2 M152.7,49.2l4.1,11.5c0,0-33,11.9-21.7,43.8l-11.5,4.1C112.4,76.7,134.8,55.6,152.7,49.2 M156.8,60.7l-6.4-10.4L156.8,60.7l-4.1-11.5L156.8,60.7L156.8,60.7L156.8,60.7L156.8,60.7L156.8,60.7L156.8,60.7L156.8,60.7z"/><path fill="#000000" d="M180.9,172.8c2.2,0,4.1-1.8,4.1-4.1c0-2.2-1.8-4.1-4.1-4.1c-2.2,0-4.1,1.8-4.1,4.1C176.9,170.9,178.7,172.8,180.9,172.8 M201.3,152.4c2.2,0,4.1-1.8,4.1-4.1s-1.8-4.1-4.1-4.1s-4.1,1.8-4.1,4.1C197.2,150.6,199,152.4,201.3,152.4 M160.6,152.4c2.2,0,4.1-1.8,4.1-4.1s-1.8-4.1-4.1-4.1c-2.2,0-4.1,1.8-4.1,4.1S158.3,152.4,160.6,152.4 M180.9,132.1c2.2,0,4.1-1.8,4.1-4.1s-1.8-4.1-4.1-4.1c-2.2,0-4.1,1.8-4.1,4.1C176.9,130.2,178.7,132.1,180.9,132.1 M180.9,180.9c-6.7,0-12.2-5.5-12.2-12.2s5.5-12.2,12.2-12.2s12.2,5.5,12.2,12.2S187.7,180.9,180.9,180.9L180.9,180.9L180.9,180.9z M201.3,160.6c-6.8,0-12.2-5.5-12.2-12.2c0-6.8,5.5-12.2,12.2-12.2c6.8,0,12.2,5.5,12.2,12.2C213.5,155.1,208,160.6,201.3,160.6L201.3,160.6L201.3,160.6z M160.6,160.6c-6.8,0-12.2-5.5-12.2-12.2c0-6.8,5.5-12.2,12.2-12.2c6.8,0,12.2,5.5,12.2,12.2C172.8,155.1,167.3,160.6,160.6,160.6L160.6,160.6L160.6,160.6z M180.9,140.2c-6.7,0-12.2-5.5-12.2-12.2c0-6.8,5.5-12.2,12.2-12.2s12.2,5.5,12.2,12.2S187.7,140.2,180.9,140.2L180.9,140.2L180.9,140.2z"/><path fill="#000000" d="M81.3,172.8c-3.4,0-6.1-2.7-6.1-6.1V126c0-3.4,2.7-6.1,6.1-6.1s6.1,2.7,6.1,6.1v40.7C87.4,170,84.6,172.8,81.3,172.8L81.3,172.8z"/><path fill="#000000" d="M101.6,152.4H60.9c-3.4,0-6.1-2.7-6.1-6.1c0-3.4,2.7-6.1,6.1-6.1h40.7c3.4,0,6.1,2.7,6.1,6.1C107.7,149.7,105,152.4,101.6,152.4L101.6,152.4z"/></g></g>
</svg>